<svg id="Warstwa_2" data-name="Warstwa 2" xmlns="http://www.w3.org/2000/svg" xmlns:xlink="http://www.w3.org/1999/xlink" viewBox="0 0 1533.76 719.83"><defs><style>.cls-1{fill:#fff;}.cls-2{fill:url(#Gradient_bez_nazwy_16);}.cls-3{fill:url(#Gradient_bez_nazwy_22);}.cls-4{fill:url(#Gradient_bez_nazwy_19);}</style><linearGradient id="Gradient_bez_nazwy_16" x1="316.02" y1="528.89" x2="484.43" y2="410.96" gradientUnits="userSpaceOnUse"><stop offset="0" stop-color="#b9985c"/><stop offset="0.2" stop-color="#bb9b5e"/><stop offset="0.33" stop-color="#c1a363"/><stop offset="0.44" stop-color="#cbb26d"/><stop offset="0.54" stop-color="#d9c87b"/><stop offset="0.63" stop-color="#ebe38c"/><stop offset="0.65" stop-color="#efe990"/><stop offset="0.74" stop-color="#ddcf7f"/><stop offset="0.9" stop-color="#c3a766"/><stop offset="0.98" stop-color="#b9985c"/></linearGradient><linearGradient id="Gradient_bez_nazwy_22" x1="1366.56" y1="764.87" x2="1753.55" y2="764.87" gradientUnits="userSpaceOnUse"><stop offset="0" stop-color="#b9985c"/><stop offset="0.86" stop-color="#b9985c"/><stop offset="0.98" stop-color="#b9985c"/></linearGradient><linearGradient id="Gradient_bez_nazwy_19" x1="1366.48" y1="683.1" x2="1567.35" y2="335.18" xlink:href="#Gradient_bez_nazwy_16"/></defs><title>bialev2</title><path class="cls-1" d="M920.81,180.42s-307.42-6.57-411.47,38.36c0,0-33.1,8.28-96.95,100.5a147.17,147.17,0,0,1-44.93,22.47s-47.3,8.28-54.39,50.84c0,0,134.79-30.74,163.17-20.1,0,0,31.08-43.43,46.3-48.34.73-.24,1.33-.43,2.09-.65a6.26,6.26,0,0,0,.61-.21c11.56-4.65,84.11-30.36,290.34-37l-.39-8s-249.49,15.76-280.62-3.16c0,0-9.86-26.8,40.39-48.08s146.62-34.95,345.85-40.79Z" transform="translate(-219.79 -180.08)"/><path class="cls-1" d="M271.09,433.38s-30.74,27.79-42.56,168.49l-8.74,171.45s0,71.14,41.84,99.32c0,0,87.5,66.21,186.82-7.69,0,0-195.09,55-196.27-116.46L293,810l135.38-21.28s-14.19-29.56,8.87-51.43c0,0,39.61-31.34,83.36-29.56s63.25,33.69,62.07,73.3c0,0,84,7.69,107,5.92s92.11-1.72,138.81-26.25a.38.38,0,0,0,0-.65l-11.25-7.16s-65.9,39.38-166.8,13c0,0-51.63-17.74-63.06-37.05s-23.94-29.36-70.06-28.18c0,0-91.63,1.18-104.34,58.53l-78.63-.39s-86.71,3.15-90.65-203.37c0,0-3.27-40.46,43.75-51.63,50.91-12.1,35.08-21.68,359.44-4.34L534.76,484.52s-15.66-82.47-67.39-90.15c-43.83-6.52-115.94,10.31-153.73,29.75a45.84,45.84,0,0,0-23.14,28.26c-2.41,8.54-5.53,21.1-9.36,39.53l-26.4,12.61S254.34,463.93,271.09,433.38Z" transform="translate(-219.79 -180.08)"/><path class="cls-2" d="M519.55,484.61C332.61,476.9,338.13,484,299,492.68a69.67,69.67,0,0,0-6.95,1.9l1.38-11.65c3.39-15.18,6.14-25.54,8.27-32.57a38.56,38.56,0,0,1,20.46-23.3c33.4-16,97.15-29.88,135.89-24.52,45.74,6.35,59.57,74.3,59.57,74.3Z" transform="translate(-219.79 -180.08)"/><path class="cls-1" d="M488.65,739.77s-11.88-21.53-36.95-4.14-2.36,56.16,23.65,51.58l2.22-7.68s-25.57.39-27.94-21.31c0,0-1-6.33,3.85-14.76C453.48,743.46,462.05,723.51,488.65,739.77Z" transform="translate(-219.79 -180.08)"/><path class="cls-1" d="M554.7,741.69s-11.88-21.53-37-4.14-2.37,56.16,23.65,51.58l2.21-7.69s-25.57.39-27.93-21.31c0,0-1-6.33,3.84-14.75C519.52,745.38,528.09,725.43,554.7,741.69Z" transform="translate(-219.79 -180.08)"/><path class="cls-1" d="M968.08,690.43q0,15.12-15.1,15.11H817q-24.78,0-42.6-17.83t-17.83-42.6V524.24q0-24.76,17.83-42.6T817,463.81h45.33q15.09,0,15.11-15.11V358.05q0-15.09-15.11-15.11t-15.11,15.11v60.44q0,15.11-15.11,15.1H771.68q-15.12,0-15.11-15.1V373.16q0-24.77,17.83-42.6T817,312.73h90.65q24.78,0,42.61,17.83t17.82,42.6Zm-90.64-30.21V509.14q0-15.11-15.11-15.11t-15.11,15.11V660.22q0,15.1,15.11,15.11T877.44,660.22Z" transform="translate(-219.79 -180.08)"/><path class="cls-1" d="M1330.68,690.43q0,15.12-15.11,15.11h-60.43q-15.12,0-15.11-15.11V358.05q0-15.09-15.11-15.11t-15.11,15.11V690.43q0,15.12-15.11,15.11h-60.43q-15.11,0-15.11-15.11V358.05q0-15.09-15.11-15.11T1089,358.05V690.43q0,15.12-15.11,15.11h-60.43q-15.12,0-15.11-15.11V327.84q0-15.1,15.11-15.11h256.83q24.78,0,42.61,17.83t17.83,42.6Z" transform="translate(-219.79 -180.08)"/><path class="cls-1" d="M855.69,745.73q0,5.84-3.51,16.52-3.6,11.1-3.87,16.57a5.11,5.11,0,0,0,3.66,2.39,13.84,13.84,0,0,1,4.14.85,7.84,7.84,0,0,1,1,3.61q0,3.66-6.85,9.46-10.31.74-11.53.74a26,26,0,0,1-12.43-2.82q-6.48-3.56-6.48-10.19,0-5.05,4.73-8.45a16.32,16.32,0,0,1,16.57-1.49q5.16-8.49,6.11-20.66Q843,753.06,834,758q-8.24,4.41-13.55,4.73a9.24,9.24,0,0,1-3.56-7.55,8.32,8.32,0,0,1,.32-2.28q3.78-1.65,17.53-6.91,14.92-5.67,16.09-5.68Q855.69,740.31,855.69,745.73Zm-12.43,39.62q-2-.9-3.45-5.26a11.89,11.89,0,0,0-4.78-1q-6,0-5.74,4.67l.05.85c1.74,1.84,4.25,2.76,7.55,2.76A9.15,9.15,0,0,0,843.26,785.35Z" transform="translate(-219.79 -180.08)"/><path class="cls-1" d="M878.1,755.29q-1.7,5.79-3.45,11.53-2.07,7.63-2.07,11.47,0,5.58,3.51,5.58,4.18,0,12.21-11A144.59,144.59,0,0,0,897.7,758a3,3,0,0,1,2-.8,3.55,3.55,0,0,1,2.65,1.75c.64,1,1.28,2,1.92,2.92q-7.07,13.27-7.07,18.38a4,4,0,0,0,.59,2.66,29.38,29.38,0,0,0,3.71,2.33c1.77,1,2.66,2,2.66,3s-.67,2.1-2,3.21a6,6,0,0,1-3.66,1.67q-4.47,0-7.92-11.63l-6.64,6.16c-2.9,2.34-5.56,3.51-8,3.51a8.72,8.72,0,0,1-7.65-4,15,15,0,0,1-2.34-8.61,35,35,0,0,1,1.06-8.18l4.57-18.91a3.51,3.51,0,0,1,4.14,1.38C876.53,753.61,877.32,754.44,878.1,755.29Z" transform="translate(-219.79 -180.08)"/><path class="cls-1" d="M945,729.42l0,1.06a23.7,23.7,0,0,1-2,9.09,86,86,0,0,0-3.24,8.76c.92.07,2,.11,3.13.11s2.92-.06,5.24-.16,4.06-.16,5.23-.16a25,25,0,0,1,7.27.9q-.58,3.51-7.17,4.46-8.55,1.23-11.57,3.4-6.06,4.36-6.06,16.47a51.52,51.52,0,0,0,1.06,12.11c.21.85.66,1.27,1.33,1.27q2.65,0,9.08-6.32a81.22,81.22,0,0,0,8.13-9,2.94,2.94,0,0,1,1.81,3,15.58,15.58,0,0,1-.27,2.39,15.84,15.84,0,0,0-.27,2.39q-10.79,13.92-18.8,13.92-6.42,0-8.5-10.2a79.37,79.37,0,0,1-1.06-15.14q0-4.67.32-8.39a6.62,6.62,0,0,0-3.4-.85,22.35,22.35,0,0,0-5.79,1.14,22,22,0,0,1-5.74,1.15q-4.14,0-4.67-5.32a42.31,42.31,0,0,1,10.62-3.29,95.39,95.39,0,0,0,10.94-2.6q2-3.13,3.88-12.48,1.75-8.5,5.26-12.33a4.26,4.26,0,0,1,3.35,1.39A19.73,19.73,0,0,1,945,729.42Z" transform="translate(-219.79 -180.08)"/><path class="cls-1" d="M989.64,745.62a18.76,18.76,0,0,1,13.52,5.61,18,18,0,0,1,5.76,13.35q0,10.68-8.33,18.7t-19.07,8a20.13,20.13,0,0,1-16.41-7.7c-.08-.85-.11-1.68-.11-2.5a29.68,29.68,0,0,1,9.24-21.67,12.58,12.58,0,0,1,4.83-9.93A16,16,0,0,1,989.64,745.62Zm11.58,18.06a8.9,8.9,0,0,0-2.76-6.66,9.31,9.31,0,0,0-6.74-2.69,7.6,7.6,0,0,0-5.1,1.86,9.63,9.63,0,0,1,1.54,4.78q0,3.19-3.72,6.43-3.45,2.82-6.85,5.63-3.62,3.56-3.4,7.6l0,1a61.55,61.55,0,0,0,11.26-.74,19.32,19.32,0,0,0,9.93-5Q1001.22,770.22,1001.22,763.68Z" transform="translate(-219.79 -180.08)"/><path class="cls-1" d="M1063.69,758.26a46.65,46.65,0,0,0-7.12-.53q-6.06,0-18,2.29t-17.9,2.28a34,34,0,0,1-3.4-.16,8.73,8.73,0,0,1-3.19-4.67l-1.38-5.74a8.7,8.7,0,0,1,3.93-1.22,5.3,5.3,0,0,1,3.93,1.86c.6,0,1.26,0,2,0q5.19,0,15.32-2.2t15.22-2.21q7.59,0,12.48,4.36v3.29Z" transform="translate(-219.79 -180.08)"/><path class="cls-1" d="M1110.8,760.76s2.56-1.71,7.57-5.13,9-5.12,12-5.12q8.81,0,8.81,12.53,0,1.5-1.86,17.74-1.9,16.63-6.42,16.63a3.84,3.84,0,0,1-3.14-1.81,5.78,5.78,0,0,1-1.17-3.5c0-1.31.71-3.76,2.13-7.33a60.4,60.4,0,0,0,2.76-11.16,73.24,73.24,0,0,0,1.17-11.47c0-2.72-.42-4.09-1.28-4.09q-3.55,0-8.81,4-6.16,4.66-14.18,16.67c-2.73,4.08-4.57,6.11-5.53,6.11q-2.11,0-3.77-2.55a8.24,8.24,0,0,1-1.54-4.67,35.72,35.72,0,0,1,1.46-8.31,35.33,35.33,0,0,0,1.46-8.32,9.35,9.35,0,0,0-.42-2.92q-6,5.52-11.48,16.2-2.22,4.47-8.12,18.38a6.79,6.79,0,0,1-1,.11,5.48,5.48,0,0,1-3.24-1.12,3.17,3.17,0,0,1-1.64-2.92l2.6-32.61c0-.39,1.1-.61,3.18-.64a3,3,0,0,0,.69-.05l3.94,5.25a30.58,30.58,0,0,1,7-7.86q5.16-4.24,9.25-4.25a5.9,5.9,0,0,1,5.36,3.19,34.21,34.21,0,0,1,2.07,5.84C1109.26,759.7,1110,760.76,1110.8,760.76Z" transform="translate(-219.79 -180.08)"/><path class="cls-1" d="M1172,745.62a18.76,18.76,0,0,1,13.52,5.61,18,18,0,0,1,5.76,13.35q0,10.68-8.34,18.7t-19.07,8a20.16,20.16,0,0,1-16.41-7.7c-.07-.85-.1-1.68-.1-2.5a29.68,29.68,0,0,1,9.24-21.67,12.58,12.58,0,0,1,4.83-9.93A16,16,0,0,1,1172,745.62Zm11.58,18.06a8.9,8.9,0,0,0-2.76-6.66,9.32,9.32,0,0,0-6.75-2.69,7.6,7.6,0,0,0-5.1,1.86,9.53,9.53,0,0,1,1.54,4.78q0,3.19-3.71,6.43-3.46,2.82-6.86,5.63c-2.4,2.37-3.54,4.9-3.4,7.6l.06,1a61.63,61.63,0,0,0,11.26-.74,19.35,19.35,0,0,0,9.93-5Q1183.62,770.22,1183.62,763.68Z" transform="translate(-219.79 -180.08)"/><path class="cls-1" d="M1232.8,729.42l.06,1.06a23.89,23.89,0,0,1-2,9.09,86,86,0,0,0-3.24,8.76c.92.07,2,.11,3.13.11s2.91-.06,5.23-.16,4.07-.16,5.24-.16a25.05,25.05,0,0,1,7.27.9q-.59,3.51-7.17,4.46-8.55,1.23-11.58,3.4-6,4.36-6,16.47a51.52,51.52,0,0,0,1.06,12.11c.21.85.65,1.27,1.33,1.27q2.65,0,9.08-6.32a81.22,81.22,0,0,0,8.13-9,2.93,2.93,0,0,1,1.8,3,16.63,16.63,0,0,1-.26,2.39,15.84,15.84,0,0,0-.27,2.39q-10.79,13.92-18.8,13.92-6.43,0-8.5-10.2a79.37,79.37,0,0,1-1.06-15.14q0-4.67.32-8.39a6.62,6.62,0,0,0-3.4-.85,22.35,22.35,0,0,0-5.79,1.14,22,22,0,0,1-5.74,1.15q-4.14,0-4.67-5.32a42.31,42.31,0,0,1,10.62-3.29,95.39,95.39,0,0,0,10.94-2.6q2-3.13,3.88-12.48,1.76-8.5,5.26-12.33a4.24,4.24,0,0,1,3.34,1.39A18.26,18.26,0,0,1,1232.8,729.42Z" transform="translate(-219.79 -180.08)"/><path class="cls-1" d="M1277.47,745.62a18.76,18.76,0,0,1,13.52,5.61,18,18,0,0,1,5.76,13.35q0,10.68-8.33,18.7t-19.07,8a20.16,20.16,0,0,1-16.42-7.7c-.07-.85-.1-1.68-.1-2.5a29.68,29.68,0,0,1,9.24-21.67,12.58,12.58,0,0,1,4.83-9.93A16,16,0,0,1,1277.47,745.62Zm11.58,18.06a8.9,8.9,0,0,0-2.76-6.66,9.32,9.32,0,0,0-6.75-2.69,7.59,7.59,0,0,0-5.09,1.86A9.63,9.63,0,0,1,1276,761q0,3.19-3.72,6.43-3.45,2.82-6.85,5.63-3.62,3.56-3.4,7.6l0,1a61.55,61.55,0,0,0,11.26-.74,19.32,19.32,0,0,0,9.93-5Q1289,770.22,1289.05,763.68Z" transform="translate(-219.79 -180.08)"/><path class="cls-3" d="M1414.62,754.78c-.74,2.2-2.79,3.29-6.16,3.29-.85,0-2.13-.05-3.85-.16s-3-.16-3.85-.16q-6.85,0-16,7.6-9.39,7.8-9.4,14.45a7.13,7.13,0,0,0,2.18,5.28,7.24,7.24,0,0,0,5.31,2.15q4,0,14.71-5.39t14.88-5.39c3.32,0,5,1.21,5,3.61a6,6,0,0,1-.64,2.82q-23.05,11.52-34.36,11.52a18.6,18.6,0,0,1-10.68-3.08,10.76,10.76,0,0,1-5.2-9.35q0-9.45,10.51-20.13a90.67,90.67,0,0,1,18.65-14.23l1.32-.05a18.33,18.33,0,0,1,9.19,2.33Z" transform="translate(-219.79 -180.08)"/><path class="cls-3" d="M1474.22,756.53a9.84,9.84,0,0,1-2.5,5.9,60.86,60.86,0,0,1-31.44,8.82q-3,0-6.22-.32a6.07,6.07,0,0,0-2.7,5.22,6.56,6.56,0,0,0,2.76,5.5,9.33,9.33,0,0,0,6,1.92q4.93,0,15.56-4.33t15.14-4.33a7,7,0,0,1,4.25,1.22Q1457,792,1442.14,792q-8.34,0-13.07-3.87-5.1-4.2-5.1-12.33c0-.81,0-2,.11-3.58s.11-2.77.11-3.59a11.49,11.49,0,0,0-1.07-5.57q4.68-.8,10.89-6.54,6.65-6.1,10-7.17a40.71,40.71,0,0,1,12.37-1.75,31.88,31.88,0,0,1,10.79,1.86Q1474.21,752,1474.22,756.53Zm-7.7,0a19.22,19.22,0,0,0-8.71-2,25.8,25.8,0,0,0-9.09,1.75q-5.25,2-7.54,5.1a5.26,5.26,0,0,0-1.22,2.66q0,1.8,3.24,1.8,4.93,0,12.32-3T1466.52,756.53Z" transform="translate(-219.79 -180.08)"/><path class="cls-3" d="M1532.27,771.78a53.69,53.69,0,0,1-9.56,31,3.5,3.5,0,0,1-1.38.31c-1.27,0-2.57-.9-3.87-2.7a8.19,8.19,0,0,1-1.81-4.57q0-4.47,6.85-9.3a50.33,50.33,0,0,0,1.86-14.66q0-7.17-1.17-10.57-1.9-5.73-7.54-5.73-8.13,0-14.13,9.5-3.18,5.1-7.75,17.74-3.46,9.51-5.42,9.51-5.31,0-5.31-10.78a106.82,106.82,0,0,1,1.3-13,107.72,107.72,0,0,0,1.3-12.64v-2.08a12.85,12.85,0,0,1,7.06,4.57c0,.29,0,.85-.1,1.7s-.06,1.28-.06,1.7a3.79,3.79,0,0,0,.8,2.5q7-9.82,9.14-11.9a18.58,18.58,0,0,1,13.38-5.74q8.66,0,13,8.71Q1532.28,762.11,1532.27,771.78Z" transform="translate(-219.79 -180.08)"/><path class="cls-3" d="M1573.92,731.2l0,1.06a23.62,23.62,0,0,1-2,9.08,84.86,84.86,0,0,0-3.24,8.77c.92.07,2,.1,3.13.1s2.92-.05,5.24-.16,4.06-.16,5.23-.16a24.64,24.64,0,0,1,7.27.91q-.58,3.5-7.17,4.46-8.55,1.22-11.58,3.4-6,4.35-6,16.46a51.47,51.47,0,0,0,1.06,12.11c.21.85.66,1.28,1.33,1.28q2.65,0,9.08-6.32a81.24,81.24,0,0,0,8.13-9,3,3,0,0,1,1.81,3,15.71,15.71,0,0,1-.27,2.39,15.71,15.71,0,0,0-.27,2.39q-10.77,13.92-18.8,13.91-6.42,0-8.5-10.19a79.45,79.45,0,0,1-1.06-15.14c0-3.12.11-5.91.32-8.39a6.53,6.53,0,0,0-3.4-.85,22.35,22.35,0,0,0-5.79,1.14,22.29,22.29,0,0,1-5.74,1.14q-4.14,0-4.67-5.31a41.9,41.9,0,0,1,10.62-3.29,97.9,97.9,0,0,0,10.95-2.61q2-3.13,3.87-12.48,1.75-8.49,5.26-12.32a4.25,4.25,0,0,1,3.35,1.38A19.52,19.52,0,0,1,1573.92,731.2Z" transform="translate(-219.79 -180.08)"/><path class="cls-3" d="M1639,761.1q-3.07,3.82-6.43,3.82a4.31,4.31,0,0,1-2.17-.53,12.65,12.65,0,0,0-3.67-3.87,8.71,8.71,0,0,0-4.94-1.81q-7.27,0-12.27,14.29a62.88,62.88,0,0,0-4,20.77,4.94,4.94,0,0,1-1.86.42q-4.36,0-5.32-6.32c-.17-2.76-.46-6.74-.84-12a117.23,117.23,0,0,1-.91-12,37.74,37.74,0,0,1,1.75-12q5.85,1.92,5.85,3.94a15,15,0,0,1-.22,2.17,16.37,16.37,0,0,0-.21,2.18,3.82,3.82,0,0,0,1.07,2.82c5-4.93,7.64-7.56,8.07-7.92q5.31-4.35,10.09-4.35a14.35,14.35,0,0,1,9,3.45Q1632.28,754.57,1639,761.1Z" transform="translate(-219.79 -180.08)"/><path class="cls-3" d="M1654,757.06q-1.69,5.79-3.45,11.53-2.07,7.65-2.07,11.47,0,5.58,3.5,5.58,4.2,0,12.22-11a145.22,145.22,0,0,0,9.4-14.92,3.06,3.06,0,0,1,2-.8,3.57,3.57,0,0,1,2.65,1.76c.64,1,1.28,2,1.92,2.92q-7.07,13.27-7.07,18.37a4,4,0,0,0,.59,2.66,27.56,27.56,0,0,0,3.71,2.34c1.77,1,2.66,2,2.66,3s-.67,2.1-2,3.22a6.06,6.06,0,0,1-3.66,1.67q-4.47,0-7.92-11.63-3.35,3.07-6.64,6.16-4.35,3.5-8,3.5a8.69,8.69,0,0,1-7.64-4,15,15,0,0,1-2.34-8.6,34.93,34.93,0,0,1,1.06-8.18l4.57-18.91a4.26,4.26,0,0,1,1.33-.22,4.51,4.51,0,0,1,2.81,1.6C1652.44,755.38,1653.23,756.21,1654,757.06Z" transform="translate(-219.79 -180.08)"/><path class="cls-3" d="M1725.19,762.54s2.55-1.71,7.56-5.13,9-5.13,12-5.13q8.82,0,8.82,12.54,0,1.48-1.86,17.74-1.9,16.62-6.43,16.62a3.83,3.83,0,0,1-3.13-1.8,5.79,5.79,0,0,1-1.17-3.51q0-2,2.13-7.33a60.26,60.26,0,0,0,2.76-11.15,73.35,73.35,0,0,0,1.17-11.47c0-2.73-.43-4.09-1.28-4.09q-3.56,0-8.82,4-6.15,4.68-14.18,16.68c-2.72,4.07-4.57,6.11-5.52,6.11q-2.13,0-3.77-2.55a8.27,8.27,0,0,1-1.54-4.68,35.26,35.26,0,0,1,1.46-8.31,35.88,35.88,0,0,0,1.46-8.31,9,9,0,0,0-.43-2.92q-6,5.52-11.47,16.2-2.23,4.46-8.13,18.37a6.53,6.53,0,0,1-1,.11,5.37,5.37,0,0,1-3.24-1.12,3.18,3.18,0,0,1-1.65-2.92l2.6-32.61c0-.39,1.1-.6,3.19-.64a2.57,2.57,0,0,0,.69-.05l3.93,5.26a30.49,30.49,0,0,1,7-7.86c3.43-2.83,6.52-4.25,9.24-4.25a5.89,5.89,0,0,1,5.37,3.18,36.37,36.37,0,0,1,2.07,5.85C1723.65,761.47,1724.37,762.54,1725.19,762.54Z" transform="translate(-219.79 -180.08)"/><path class="cls-4" d="M1572.67,645.11q0,24.78-17.83,42.6t-42.6,17.83h-90.65q-24.78,0-42.6-17.83t-17.83-42.6V373.16q0-24.77,17.83-42.6t42.6-17.83h90.65q24.77,0,42.6,17.83t17.83,42.6v45.33q0,15.11-15.11,15.11h-60.43q-15.11,0-15.11-15.11V358.05q0-15.09-15.1-15.1t-15.11,15.1V660.22q0,15.1,15.11,15.11t15.1-15.11V599.79q0-15.1,15.11-15.11h60.43q15.11,0,15.11,15.11Z" transform="translate(-219.79 -180.08)"/></svg>