<svg xmlns="http://www.w3.org/2000/svg" viewBox="0 0 781.73 914.22">
    <defs>
        <style>.cls-1{opacity:0.35;}</style>
    </defs>
    <title>tlumik</title>
    <g id="Warstwa_2" data-name="Warstwa 2">
        <path d="M1352.16,286a17.88,17.88,0,0,0-5.28-12.75l-39.18-39.18a18,18,0,0,0-25.51,0l-40.28,40.27L1218,250.39l40.27-40.27a18,18,0,0,0,0-25.51l-39.18-39.18a18,18,0,0,0-25.51,0L1153.3,185.7,1063,95.41a38.65,38.65,0,0,0-60.72,46.82L685,457.45a38.68,38.68,0,0,0-45.54,61.49l24.34,24.34c-7.36,6.32-21.6,18.52-49,42-39.81,34.07-41.35,72-35.63,97.82a110.18,110.18,0,0,0,29.92,53.8L676,804l-98,95.28a24.89,24.89,0,0,0-1.17,34.55l57.81,64.45L642,991.2c.47-.46,48.18-46.73,115.71-110.13,22.33-21,34-44.52,34.77-70,1.23-42.16-28.23-73.73-29.48-75l-75.19-72,50-46.74L909.52,789a38.65,38.65,0,0,0,59-49.53l317.65-313.32a38.66,38.66,0,0,0,46.9-60.68L1306.6,339l40.28-40.27A17.92,17.92,0,0,0,1352.16,286ZM1206.33,160.41l37,37-39.16,39.16-36.95-37ZM700.07,470.15,1015.23,157l256.14,256.14-316.3,312ZM659.24,663.8l89.62,85.82c1.94,2.12,24.94,28,24,60.85-.58,20.1-10.2,39-28.59,56.3C692,915.85,651.53,954.7,635.64,970l-44.2-49.28a5.32,5.32,0,0,1,.25-7.39L703.86,804.25,623,723a90.65,90.65,0,0,1-24.67-44.21c-6.63-29.92,3.21-56.39,29.24-78.67,25.29-21.63,39.52-33.83,47.43-40.62l2.74-2.35,46.16,46.16Zm291.1,111.31a19.08,19.08,0,0,1-27,0l-270-270a19.06,19.06,0,0,1,26.95-26.95l270,270A19.08,19.08,0,0,1,950.34,775.11Zm368.84-368.84a19.07,19.07,0,0,1-27,0l-270-270a19.06,19.06,0,0,1,27-26.95l103,103.05h0l39.18,39.18h0l49.42,49.43h0l32.53,32.52,45.85,45.85A19.08,19.08,0,0,1,1319.18,406.27Zm-26.45-81.13-37-36.95L1294.94,249l37,37Z" transform="translate(-570.44 -84.09)"/>
    </g>
</svg>