<svg id="Warstwa_2" data-name="Warstwa 2" xmlns="http://www.w3.org/2000/svg" viewBox="0 0 736.66 637">
    <title>akus</title>
    <path d="M1376.46,256.3h-33.31c0-.19,0-.39,0-.59V193.22a11.6,11.6,0,0,0-11.59-11.59h-6.76c0-.19,0-.39,0-.58V138.47a11.6,11.6,0,0,0-11.59-11.58h-64.54a11.6,11.6,0,0,0-11.59,11.58v42.58c0,.19,0,.39,0,.58h-6.76a11.6,11.6,0,0,0-11.59,11.59v62.49c0,.2,0,.4,0,.59H885.69c0-.19,0-.39,0-.59V193.22a11.6,11.6,0,0,0-11.58-11.59h-6.76c0-.19,0-.39,0-.58V138.47a11.6,11.6,0,0,0-11.59-11.58H791.27a11.59,11.59,0,0,0-11.58,11.58v42.58c0,.19,0,.39,0,.58H773a11.6,11.6,0,0,0-11.59,11.59v62.49c0,.2,0,.4,0,.59H729.12A44.71,44.71,0,0,0,684.46,301V719.22a44.71,44.71,0,0,0,44.66,44.67h647.34a44.72,44.72,0,0,0,44.66-44.67V301A44.72,44.72,0,0,0,1376.46,256.3Zm-128.32-75.25V138.47a.58.58,0,0,1,.59-.58h64.54a.58.58,0,0,1,.59.58v42.58a.58.58,0,0,1-.59.58h-64.54A.58.58,0,0,1,1248.14,181.05Zm-18.32,74.66V193.22a.6.6,0,0,1,.59-.59h101.18a.6.6,0,0,1,.59.59v62.49a.59.59,0,0,1-.59.59H1230.41A.59.59,0,0,1,1229.82,255.71ZM790.69,181.05V138.47a.58.58,0,0,1,.58-.58h64.55a.58.58,0,0,1,.59.58v42.58a.58.58,0,0,1-.59.58H791.27A.58.58,0,0,1,790.69,181.05Zm-18.32,74.66V193.22a.6.6,0,0,1,.59-.59H874.14a.59.59,0,0,1,.58.59v62.49a.58.58,0,0,1-.58.59H773A.59.59,0,0,1,772.37,255.71ZM729.12,267.3h647.34A33.7,33.7,0,0,1,1410.12,301V330.2H695.46V301A33.7,33.7,0,0,1,729.12,267.3Zm681,73.9V665.69H695.46V341.2Zm-33.66,411.69H729.12a33.71,33.71,0,0,1-33.66-33.67V676.69h714.66v42.53A33.71,33.71,0,0,1,1376.46,752.89Z" transform="translate(-684.46 -126.89)"/>
    <rect x="102.08" y="326.89" width="117.21" height="25.45" rx="8.61"/>
    <path d="M1206.14,479.22h37.27v37.27a8.61,8.61,0,0,0,8.61,8.61h8.23a8.62,8.62,0,0,0,8.61-8.61V479.22h37.27a8.62,8.62,0,0,0,8.61-8.61v-8.23a8.62,8.62,0,0,0-8.61-8.61h-37.27V416.5a8.62,8.62,0,0,0-8.61-8.61H1252a8.61,8.61,0,0,0-8.61,8.61v37.27h-37.27a8.61,8.61,0,0,0-8.61,8.61v8.23A8.61,8.61,0,0,0,1206.14,479.22Z" transform="translate(-684.46 -126.89)"/>
    <path d="M978.76,525.1h63L1032.86,612a3.09,3.09,0,0,0,5.52,2.2l89.38-116.46a5,5,0,0,0-3.7-8l-62.24-3.34,3.42-75.93a3.09,3.09,0,0,0-5.52-2L974.82,517A5,5,0,0,0,978.76,525.1Z" transform="translate(-684.46 -126.89)"/>
</svg>