<svg id="Warstwa_2" data-name="Warstwa 2" xmlns="http://www.w3.org/2000/svg" viewBox="0 0 712.77 736.85">
    <title>tarcza</title>
    <path d="M949.9,489.66a71.4,71.4,0,1,0,71.41,71.4A71.48,71.48,0,0,0,949.9,489.66Zm0,124.89a53.49,53.49,0,1,1,53.49-53.49A53.55,53.55,0,0,1,949.9,614.55Z" transform="translate(-601.32 -173.43)"/>
    <path d="M949.9,375.5c-103.72,0-188.11,84.38-188.11,188.11S846.18,751.73,949.9,751.73,1138,667.34,1138,563.61,1053.63,375.5,949.9,375.5Zm0,358.32c-93.85,0-170.2-76.36-170.2-170.21s76.35-170.2,170.2-170.2,170.21,76.35,170.21,170.2S1043.75,733.82,949.9,733.82Z" transform="translate(-601.32 -173.43)"/>
    <circle cx="264.69" cy="301.82" r="11.26"/>
    <circle cx="949.9" cy="439.99" r="11.26" transform="translate(-677 56.58) rotate(-13.28)"/>
    <circle cx="435.03" cy="301.82" r="11.26"/>
    <path d="M1059.08,561.06a11.26,11.26,0,1,0,11.25-11.25A11.26,11.26,0,0,0,1059.08,561.06Z" transform="translate(-601.32 -173.43)"/>
    <circle cx="829.47" cy="561.06" r="11.26" transform="translate(-755.1 577.42) rotate(-45)"/>
    <circle cx="264.69" cy="473.01" r="11.26"/>
    <circle cx="435.03" cy="473.01" r="11.26"/>
    <circle cx="949.9" cy="682.13" r="11.26" transform="translate(-645.13 1125.25) rotate(-67.5)"/>
    <rect x="788.18" y="337.7" width="60.07" height="18.12" rx="8.07" transform="translate(-267.25 918.53) rotate(-79.96)"/>
    <rect x="1058.35" y="761.71" width="60.07" height="18.12" rx="8.07" transform="translate(-461.7 1534.62) rotate(-79.96)"/>
    <rect x="692.31" y="474.02" width="18.12" height="60.07" rx="8.07" transform="translate(-763.47 348.4) rotate(-36.88)"/>
    <rect x="1185.93" y="581.07" width="18.12" height="60.07" rx="8.07" transform="translate(-728.91 666.18) rotate(-36.89)"/>
    <rect x="871.14" y="796.22" width="60.07" height="18.12" rx="8.07" transform="translate(-904.27 528.61) rotate(-36.88)"/>
    <rect x="730.53" y="667.03" width="18.12" height="60.07" rx="8.07" transform="translate(-677.1 1130.32) rotate(-79.96)"/>
    <path d="M1314.09,445.27l-3.52-8.65c-25.78-63.41-61.36-116.71-105.75-158.43a382.36,382.36,0,0,0-122.66-77.52c-78-30.64-141.4-27.21-144.05-27l-8.42.5v43.29C747,227,601.32,378.6,601.32,563.61c0,191.16,155.52,346.67,346.67,346.67s346.68-155.51,346.68-346.67a345.64,345.64,0,0,0-16.42-105.46ZM947.6,191.39c19.45.19,70.31,3.15,128.75,26.25,96.89,38.3,168.87,111.32,214,217.11l-18.05,6.49C1222.77,310.3,1096.09,216.94,948,216.94h-.39Zm0,43.47H948c140.35,0,260.41,88.41,307.49,212.45l-61.08,22c-5.62-15-19.58-46.39-47.55-78.92-34.08-39.63-96.06-88.15-199.25-97.53Zm329.15,328.75c0,181.28-147.48,328.76-328.76,328.76S619.23,744.89,619.23,563.61c0-175.13,137.66-318.71,310.46-328.24v74.08L938,310c81.59,5.62,147.1,36.37,194.7,91.39,35.66,41.21,47.39,81.41,47.5,81.8l2.61,9.24,78.54-28.23A327.61,327.61,0,0,1,1276.75,563.61Z" transform="translate(-601.32 -173.43)"/>
</svg>