<svg id="Warstwa_2" data-name="Warstwa 2" xmlns="http://www.w3.org/2000/svg" viewBox="0 0 837.27 734.62">
    <title>silnik</title>
    <path d="M1385.31,310.7,1227,143.91a40.19,40.19,0,0,0-50.77-6.15l-88,56.43h0a13.76,13.76,0,0,0-2.28,21.34l19.12,19-90.71,90.71H942.77l-91.55-91.55,20.38-20.5A13.76,13.76,0,0,0,869.36,192l-81.46-53a40,40,0,0,0-49.52,4.53L571.59,301.81a40.18,40.18,0,0,0-6.15,50.77l56.43,88A13.66,13.66,0,0,0,632,446.82a12.34,12.34,0,0,0,1.48.08,13.69,13.69,0,0,0,9.74-4l18.31-18.42,25.67,25.67a246.54,246.54,0,0,0-27.3,35.31c-21.43,33.79-29.91,67.44-24.53,97.33,8,44.23,45.12,80.66,110.43,108.32A103.57,103.57,0,0,0,810,772v57.34c0,20.25,15,36.73,33.5,36.73S877,849.57,877,829.32V775.08a102.88,102.88,0,0,0,24.21-10.63v68.1a33.5,33.5,0,0,0,67,0V710.17H989V843.85a22.23,22.23,0,0,0,22.2,22.2h22.61a22.23,22.23,0,0,0,22.2-22.2V710.17h25.92V843.85a22.22,22.22,0,0,0,22.19,22.2h22.61a22.23,22.23,0,0,0,22.2-22.2V709.08a82.74,82.74,0,0,0,51.19-29.91,247,247,0,0,0,47.32-18.67c36-18.77,60.82-44,71.66-73.11,15.74-42.2,3.26-92.22-37-148.72l14.09-14.09,19.46,19.35a13.7,13.7,0,0,0,9.68,4,12.07,12.07,0,0,0,1.47-.08,13.67,13.67,0,0,0,10.08-6.17l53-81.45A40,40,0,0,0,1385.31,310.7ZM1240.49,480.19c29,30.89,40.66,59,34.58,83.64-7.58,30.66-41,48.88-57.09,56a82.69,82.69,0,0,0-30.86-57.14l16.05-45.18Zm-171.6,98.19-122.23,128A103.29,103.29,0,0,0,813.22,578.69L913.84,478.07a65.29,65.29,0,1,0,125.58-9.87l105.55,77a81.28,81.28,0,0,0-9.41-.56A82.72,82.72,0,0,0,1068.89,578.38Zm-314,52.87c-36.93-16.33-57.78-37-62-61.38C687,535,716.5,501,727.17,490.09l28,28,24.66,80.32A103.87,103.87,0,0,0,754.86,631.25ZM1032.27,490.3A54.3,54.3,0,1,1,978,436,54.36,54.36,0,0,1,1032.27,490.3ZM1178,555.6,1020.62,440.88v0a65.17,65.17,0,0,0-92.76,7.6L788.19,588.16l-21.93-71.45L944.74,338.23h69.6l177.71,177.71ZM579.16,309.79,746,151.45a29,29,0,0,1,35.95-3.29l37.17,24.2-217,217L574.7,346.64A29.16,29.16,0,0,1,579.16,309.79Zm56.25,125.3a2.75,2.75,0,0,1-4.28-.46l-23-35.8L828.49,178.5l34.86,22.7a2.7,2.7,0,0,1,1.24,2,2.74,2.74,0,0,1-.78,2.24L713.47,356.61l-26.11,26.1.07.07ZM810,275.62l49.19,49.19a11.2,11.2,0,0,1,0,15.83l-16,16a11.2,11.2,0,0,1-15.84,0l-49.19-49.19Zm-75.27,75.27,49.19,49.19a11.2,11.2,0,0,1,0,15.84l-16,16a11.19,11.19,0,0,1-15.83,0L703,382.76l18.12-18.21Zm-39.53,39.67,49.12,49.12a22.2,22.2,0,0,0,31.39,0l16-16a22.2,22.2,0,0,0,0-31.39l-49.25-49.25,27.82-28,49.32,49.32a22.22,22.22,0,0,0,31.39,0l16-16A22.21,22.21,0,0,0,867,317l-49.45-49.45,25.93-26.07,91.22,91.22L760,507.38l-90.75-90.75Zm-49,190.27c-9.64-53.46,32.26-105,48.81-122.92l24.37,24.37c-11.87,12-44.18,49.06-37.31,89.4C686.88,600,710,623.46,750.63,641.4a102.78,102.78,0,0,0-6,34.55q0,1.34,0,2.67C686.4,652.84,653.26,620,646.19,580.83ZM755.68,676a92.28,92.28,0,1,1,96.56,92.18h-8.55A92.39,92.39,0,0,1,755.68,676ZM866,779.13v50.19c0,14.19-10.09,25.73-22.5,25.73S821,843.51,821,829.32V779.13H843.5c1.48.06,3,.1,4.46.1s3,0,4.47-.1Zm91.21,53.42a22.5,22.5,0,0,1-45,0V763.21l45-45.22Zm87.8,11.3a11.22,11.22,0,0,1-11.2,11.2h-22.61a11.22,11.22,0,0,1-11.2-11.2V710.17h45Zm11-144.68H968.78L1054.86,609a82.56,82.56,0,0,0,39.54,90.16H1056Zm81.92,144.68a11.21,11.21,0,0,1-11.2,11.2h-22.61a11.21,11.21,0,0,1-11.19-11.2V710.17h45Zm-2.32-144.68a71.72,71.72,0,0,1-58.2-113.73l13.58-14.22a71.72,71.72,0,0,1,102.72,98.24l-.09,0h0l0,.08A71.71,71.71,0,0,1,1135.56,699.17Zm173.2-115.66c-17.78,47.74-72.16,71.87-99.36,81.21a81.94,81.94,0,0,0,8.82-33c15.34-6.18,57.92-26.52,67.51-65.22,7.08-28.55-5.53-60.2-37.46-94.1l25.87-25.86C1311.33,499.25,1323,545.3,1308.76,583.51ZM1198.4,506.73l-175-175,89.44-89.44,26.63,26.49L1090,318.24a22.2,22.2,0,0,0,0,31.39l16,16a22.2,22.2,0,0,0,31.39,0L1187,316l29.39,29.23-49.65,49.65h0a22.2,22.2,0,0,0,0,31.38l16,16a22.22,22.22,0,0,0,31.39,0l49.79-49.78,24.43,24.3Zm-19.58-198.09-49.19,49.19a11.2,11.2,0,0,1-15.84,0l-16-16a11.2,11.2,0,0,1,0-15.84L1147,276.82Zm-4.33,94.06,49.2-49.19,31.82,31.82-49.19,49.19a11.21,11.21,0,0,1-15.84,0l-16-16a11.21,11.21,0,0,1,0-15.84Zm153.09,33a2.76,2.76,0,0,1-4.26.45l-229.63-228.4a2.75,2.75,0,0,1,.46-4.28L1129.1,181l220.63,220.62Zm53-81.45-24.76,38L1138.58,175,1182.14,147a29.17,29.17,0,0,1,36.85,4.47l158.34,166.78A29,29,0,0,1,1380.62,354.23Z" transform="translate(-559.1 -131.43)"/>
    <path d="M880.37,676a36.92,36.92,0,1,0-36.92,36.91A37,37,0,0,0,880.37,676Zm-62.83,0a25.92,25.92,0,1,1,25.91,25.91A25.94,25.94,0,0,1,817.54,676Z" transform="translate(-559.1 -131.43)"/>
    <path d="M1135.56,593.17a34.22,34.22,0,1,0,34.22,34.22A34.26,34.26,0,0,0,1135.56,593.17Zm0,57.44a23.22,23.22,0,1,1,23.22-23.22A23.24,23.24,0,0,1,1135.56,650.61Z" transform="translate(-559.1 -131.43)"/>
</svg>