<svg width="400" height="400" viewBox="0 0 400 400" fill="none" xmlns="http://www.w3.org/2000/svg">
<path d="M330.771 93.2469C330.771 79.953 319.997 69.2189 306.753 69.2189C293.508 69.2189 282.724 79.953 282.724 93.2469C282.724 106.492 293.508 117.226 306.753 117.226C319.997 117.226 330.771 106.492 330.771 93.2469Z" fill="url(#paint0_linear_3_8)"/>
<path d="M362.776 280.807C361.886 300.309 358.625 310.904 355.917 317.942C352.279 327.273 347.94 333.944 340.903 340.942C333.944 347.94 327.273 352.269 317.942 355.867C310.904 358.615 300.269 361.886 280.768 362.816C259.685 363.745 253.438 363.943 199.975 363.943C146.562 363.943 140.265 363.745 119.182 362.816C99.6814 361.886 89.0955 358.615 82.0576 355.867C72.6778 352.269 66.0557 347.94 59.0578 340.942C52.0101 333.944 47.6713 327.273 44.0833 317.942C41.3746 310.904 38.0639 300.309 37.2233 280.807C36.1958 259.725 36.0075 253.379 36.0075 200.025C36.0075 146.562 36.1958 140.265 37.2233 119.182C38.0639 99.6814 41.3746 89.0956 44.0833 81.9983C47.6713 72.6778 52.0101 66.0453 59.0578 59.0474C66.0557 52.0598 72.6778 47.7202 82.0576 44.0833C89.0955 41.3257 99.6814 38.1032 119.182 37.1744C140.265 36.2448 146.562 36.0075 199.975 36.0075C253.438 36.0075 259.685 36.2448 280.768 37.1744C300.269 38.1032 310.904 41.3257 317.942 44.0833C327.273 47.7202 333.944 52.0598 340.903 59.0474C347.94 66.0453 352.279 72.6778 355.917 81.9983C358.625 89.0956 361.886 99.6814 362.776 119.182C363.755 140.265 363.992 146.562 363.992 200.025C363.992 253.379 363.755 259.725 362.776 280.807ZM398.784 117.542C397.806 96.2314 394.445 81.6721 389.453 68.9913C384.373 55.8353 377.563 44.686 366.414 33.5368C355.314 22.4372 344.165 15.6268 331.009 10.4873C318.278 5.545 303.768 2.14461 282.448 1.21575C261.128 0.187555 254.318 -6.78911e-06 199.975 -6.78911e-06C145.682 -6.78911e-06 138.822 0.187555 117.502 1.21575C96.2314 2.14461 81.7314 5.545 68.9416 10.4873C55.8353 15.6268 44.686 22.4372 33.5864 33.5368C22.4372 44.686 15.6268 55.8353 10.4969 68.9913C5.55462 81.6721 2.19427 96.2314 1.16608 117.542C0.237218 138.862 0 145.682 0 200.025C0 254.318 0.237218 261.128 1.16608 282.448C2.19427 303.719 5.55462 318.268 10.4969 331.009C15.6268 344.115 22.4372 355.314 33.5864 366.414C44.686 377.513 55.8353 384.373 68.9416 389.503C81.7314 394.445 96.2314 397.806 117.502 398.784C138.822 399.763 145.682 400 199.975 400C254.318 400 261.128 399.763 282.448 398.784C303.768 397.806 318.278 394.445 331.009 389.503C344.165 384.373 355.314 377.513 366.414 366.414C377.563 355.314 384.373 344.115 389.453 331.009C394.445 318.268 397.806 303.719 398.784 282.448C399.763 261.128 400 254.318 400 200.025C400 145.682 399.763 138.862 398.784 117.542Z" fill="url(#paint1_linear_3_8)"/>
<path d="M199.975 266.634C163.177 266.634 133.317 236.823 133.317 200.024C133.317 163.166 163.177 133.317 199.975 133.317C236.784 133.317 266.683 163.166 266.683 200.024C266.683 236.823 236.784 266.634 199.975 266.634ZM199.975 97.2596C143.25 97.2596 97.3092 143.299 97.3092 200.024C97.3092 256.7 143.25 302.691 199.975 302.691C256.7 302.691 302.691 256.7 302.691 200.024C302.691 143.299 256.7 97.2596 199.975 97.2596Z" fill="url(#paint2_linear_3_8)"/>
<defs>
<linearGradient id="paint0_linear_3_8" x1="3.60774" y1="395.864" x2="366.684" y2="32.7897" gradientUnits="userSpaceOnUse">
<stop stop-color="#FFD521"/>
<stop offset="0.05" stop-color="#FFD521"/>
<stop offset="0.501119" stop-color="#F50000"/>
<stop offset="0.95" stop-color="#B900B4"/>
<stop offset="0.950079" stop-color="#B900B4"/>
<stop offset="1" stop-color="#B900B4"/>
</linearGradient>
<linearGradient id="paint1_linear_3_8" x1="3.60795" y1="396.362" x2="366.982" y2="32.9882" gradientUnits="userSpaceOnUse">
<stop stop-color="#FFD521"/>
<stop offset="0.05" stop-color="#FFD521"/>
<stop offset="0.501119" stop-color="#F50000"/>
<stop offset="0.95" stop-color="#B900B4"/>
<stop offset="0.950079" stop-color="#B900B4"/>
<stop offset="1" stop-color="#B900B4"/>
</linearGradient>
<linearGradient id="paint2_linear_3_8" x1="3.70211" y1="396.372" x2="366.989" y2="33.0852" gradientUnits="userSpaceOnUse">
<stop stop-color="#FFD521"/>
<stop offset="0.05" stop-color="#FFD521"/>
<stop offset="0.501119" stop-color="#F50000"/>
<stop offset="0.95" stop-color="#B900B4"/>
<stop offset="0.950079" stop-color="#B900B4"/>
<stop offset="1" stop-color="#B900B4"/>
</linearGradient>
</defs>
</svg>
