<svg id="Warstwa_2" data-name="Warstwa 2" xmlns="http://www.w3.org/2000/svg" viewBox="0 0 802.5 732.83">
    <title>olej</title>
    <path d="M1427.85,551.08a15.26,15.26,0,0,0-13.49-12.78l-215.24-24.16a38.15,38.15,0,0,1-32.36-27.05l-29.67-99.39a56.74,56.74,0,0,0-26.46-33.27l-109.3-62.14,41.41-62.75,56.83,32.82a10.71,10.71,0,0,0,14.62-3.92l6.19-10.72a10.7,10.7,0,0,0-3.92-14.62L988.83,159.41a10.71,10.71,0,0,0-14.62,3.92L968,174.05a10.71,10.71,0,0,0,3.92,14.62l54.48,31.46L984.94,283,864.8,214.67,805.63,155.5a57,57,0,0,0-87.16,7.77l-22.59,32.51a57,57,0,0,0,3.76,70l73.65,84.8L699,474.1a57,57,0,0,0,19.75,78.41L1017.1,729.77a56.92,56.92,0,0,0,53.5,2.54l348.63-164.77A15.27,15.27,0,0,0,1427.85,551.08Zm-714-297.68a38.19,38.19,0,0,1-2.52-46.88L733.91,174a38.16,38.16,0,0,1,28-16.26c1.15-.1,2.29-.15,3.43-.15a38.08,38.08,0,0,1,27,11.2l56.32,56.32L783.48,333.58Zm348.72,461.9a38.18,38.18,0,0,1-35.86-1.69L728.39,536.34a38.21,38.21,0,0,1-13.23-52.55L734.86,451,1137,680.12Zm95.21-45L744.55,434.88l119.56-199,237.23,134.87a38,38,0,0,1,17.73,22.3l29.67,99.39A57,57,0,0,0,1197,532.83l203.35,22.82Z" transform="translate(-685.66 -138.79)"/>
    <path d="M1457.24,688.83a684.43,684.43,0,0,0-50.46-87.54l-7.67-11-7.72,11c-4.55,6.45-110.89,158.69-73.19,232.07,12.9,25.11,40.08,38,80.8,38.3h1.45c39.75,0,66.42-12.38,79.28-36.81C1496.13,803.65,1488.57,754.53,1457.24,688.83Zm5.85,137.22c-9.47,18-30.9,27-63.95,26.76s-54.76-9.69-64.21-28.07c-24.83-48.33,32.14-152.69,64.1-201.28C1431.09,672.61,1488.29,778.17,1463.09,826.05Z" transform="translate(-685.66 -138.79)"/>
</svg>