<svg id="Warstwa_2" data-name="Warstwa 2" xmlns="http://www.w3.org/2000/svg" viewBox="0 0 928.87 918.03">
    <title>amorek</title>
    <path d="M593,861.22a53.17,53.17,0,1,0,53.17,53.17A53.24,53.24,0,0,0,593,861.22Zm0,85.6a32.43,32.43,0,1,1,32.43-32.43A32.47,32.47,0,0,1,593,946.82Z" transform="translate(-496.25 -93.07)"/>
    <path d="M1338.54,135.16a40.3,40.3,0,1,0,40.3,40.3A40.34,40.34,0,0,0,1338.54,135.16Zm0,59.85a19.55,19.55,0,1,1,19.56-19.55A19.57,19.57,0,0,1,1338.54,195Z" transform="translate(-496.25 -93.07)"/>
    <path d="M1384.44,107.33l-1.4-1.06c-40.19-31.27-100.48,2.64-103,4.1l-.5.29-90.18,66.06-17.85-17.86a39.6,39.6,0,1,0-56,56l36.84,36.84-31.18,30.68-51.1-27.9a42.1,42.1,0,0,0-57.14,16.77l-5.33,9.76a42.15,42.15,0,0,0,16.78,57.13l24.93,13.62-22.22,21.46-48.53-26.5A42.16,42.16,0,0,0,921.4,363.5l-5.33,9.76a42.15,42.15,0,0,0,16.77,57.13L957.73,444l-25.9,23-47-25.67a42.09,42.09,0,0,0-57.13,16.77l-5.33,9.76A42.09,42.09,0,0,0,839.12,525l22.72,12.41-21.5,21.45L794,533.54a42.09,42.09,0,0,0-57.13,16.77l-5.33,9.76a42.09,42.09,0,0,0,16.77,57.13l19.57,10.69-7.08,7.74-59.23-58.54-7.13,5.22c-24.55,18-37,38.24-37,60.29,0,16.72,7.33,31.28,15.47,42.3l-54.66,50.66-36.62,82.8a96.7,96.7,0,1,0,107.73,103l77.7-33.6,56-54.67c8.74,8.23,21.57,16.25,38.51,16.43h.58c20.82,0,42.54-12,64.56-35.8l6.83-7.36L871,744.52l38.34-39.39,49.42,27a41.87,41.87,0,0,0,20.12,5.18,42.44,42.44,0,0,0,11.92-1.73,41.84,41.84,0,0,0,25.09-20.22l5.33-9.76a42.09,42.09,0,0,0-16.77-57.13l-24.79-13.54,21.23-21.6,48.64,26.56a41.83,41.83,0,0,0,20.12,5.17,42.43,42.43,0,0,0,11.92-1.72,41.84,41.84,0,0,0,25.09-20.22l5.33-9.76a42.11,42.11,0,0,0-16.78-57.13l-23-12.58,22-25.12,49,26.79a42.11,42.11,0,0,0,57.13-16.78l5.33-9.76A42.16,42.16,0,0,0,1189,461.63L1169,450.74l20.56-22.36,45.19,24.67a42.12,42.12,0,0,0,57.14-16.77l5.32-9.76a41.72,41.72,0,0,0,4.61-26.69,39.58,39.58,0,0,0,49.2-61.41l-14.69-14.69A1038,1038,0,0,0,1410,223.35C1425.6,199,1443,151.47,1384.44,107.33ZM1167,266.37l90.46,90.45-117.29-64.05Zm-574,724a76,76,0,1,1,76-76A76.06,76.06,0,0,1,593,990.36Zm95.5-91.23a96.92,96.92,0,0,0-84.12-80.76l25.86-58.46,113,115.53Zm72.92-34.82L641.78,742.07l45-41.7c3.28,3.06,5.87,5.12,7,6L808.37,818.45ZM904.5,806.76c-15.4,14.74-29.75,22.14-42.67,22-10.06-.11-18.1-5-23.87-10.2l.09-.09-4.45-4.34c-9.29-10.46-21.6-24-35-36.71L707.79,691l-16-15.68c-6.9-8.54-13.58-20.09-13.55-32.84,0-13.07,7.29-25.84,21.6-38Zm-48.23-76.83-80.66-79.71,11-12.1L890.45,694.8Zm138.25-63.27a21.35,21.35,0,0,1,8.51,29l-5.33,9.76a21.35,21.35,0,0,1-29,8.51L758.3,599a21.35,21.35,0,0,1-8.51-29l5.33-9.76a21.31,21.31,0,0,1,29-8.51Zm-33.77-42.09L859.32,569.19l21.5-21.46L982,603Zm124.54-50.16a21.35,21.35,0,0,1,8.51,29l-5.33,9.76a21.35,21.35,0,0,1-29,8.51L849.06,506.76a21.38,21.38,0,0,1-8.51-29l5.33-9.76a21.35,21.35,0,0,1,29-8.51Zm-31.75-41-102.37-55.9,25.91-23,98.48,53.79ZM1179,479.84a21.37,21.37,0,0,1,8.51,29l-5.33,9.76a21.35,21.35,0,0,1-29,8.51L942.78,412.18a21.39,21.39,0,0,1-8.51-29l5.33-9.76a21.25,21.25,0,0,1,12.73-10.26,21.69,21.69,0,0,1,6-.87,21.26,21.26,0,0,1,10.21,2.62Zm-28.75-39.34-104.12-56.86,22.22-21.46,102.46,55.95ZM1279,416.58l-5.33,9.76a21.38,21.38,0,0,1-29,8.51L1034.29,319.94a21.39,21.39,0,0,1-8.51-29l5.33-9.76a21.31,21.31,0,0,1,29-8.5l210.43,114.9a21.38,21.38,0,0,1,8.51,29Zm57.34-63.49a18.85,18.85,0,0,1-26.66,26.66L1130.15,200.19a18.85,18.85,0,0,1,26.66-26.66Zm56.16-140.91A1015.58,1015.58,0,0,1,1321.62,309L1204.17,191.56l86.59-63.43c5.11-2.77,51.83-27,79.54-5.49l1.66,1.26C1406.93,150.25,1413.66,179.13,1392.53,212.18Z" transform="translate(-496.25 -93.07)"/>
</svg>